<?xml version="1.0" encoding="utf-8"?>
<!-- Generator: Adobe Illustrator 22.0.0, SVG Export Plug-In . SVG Version: 6.00 Build 0)  -->
<svg version="1.0" id="Layer_1" xmlns="http://www.w3.org/2000/svg" xmlns:xlink="http://www.w3.org/1999/xlink" x="0px" y="0px"
	 viewBox="0 0 5000 4000" style="enable-background:new 0 0 5000 4000;" xml:space="preserve">
<style type="text/css">
	.st0{fill:#333333;}
	.st1{fill:#666666;}
</style>
<g>
	<path class="st0" d="M2500.8,3717.7C2500.8,3717.7,2500.8,3717.7,2500.8,3717.7c0,0,0-0.1-0.1-0.1c0,0,0,0,0,0
		C2500.7,3717.7,2500.7,3717.7,2500.8,3717.7z"/>
	<path class="st0" d="M2500.8,3717.7C2500.8,3717.7,2500.8,3717.7,2500.8,3717.7c0,0-0.2,0-0.2,0
		C2500.6,3717.7,2500.8,3717.7,2500.8,3717.7z"/>
	<path class="st0" d="M2500.6,3717.7c0,0,0.2,0,0.2,0C2500.8,3717.7,2500.8,3717.7,2500.6,3717.7
		C2500.7,3717.7,2500.7,3717.7,2500.6,3717.7z"/>
	<path class="st0" d="M3702.8,196H1298.6C968,196,697.5,466.5,697.5,797.1v2404.5c0,330.6,270.5,601.1,601.1,601.1h2404.2
		c330.6,0,601.1-270.5,601.1-601.1V797.1C4304,466.5,4033.4,196,3702.8,196z M3771.3,1629c28.4,36.5,25.2,96.4-5.3,130.9
		c-26.4,29.8-65.2,18.7-80-15c-6.9-15.5-9.2-33.1-13.9-49.9c2.1-26.6,8.6-49.7,25.9-68.4C3720.4,1601.5,3750.5,1602.6,3771.3,1629z
		 M3550.9,1479.6c32.1-46.5,88.5-41.6,113.1,10.6c8.1,17.6,11.6,37.5,14.8,49c-2.1,39.3-8.6,68-29.6,90.9
		c-31.9,34.7-76.3,30.1-101.5-10.6C3523,1579.5,3524.3,1518,3550.9,1479.6z M3498,1315.5c17.1,28.2,26.6,57.8,26.6,85.3
		c-1.2,48.1-12.9,85.8-41.4,116.3c-36.1,38.6-90.9,34-120.9-10.2c-41.2-60.3-34.9-152.8,12.5-203.5
		C3416.4,1258.8,3471.4,1272.2,3498,1315.5z M2585.4,780.9c-28.7-51.8-53.6-105.2-84.6-167.6c-31,61.5-56.6,116.3-86.5,169.5
		c-9,16.4-27.3,37.2-44.9,40.2c-125.5,22-231.7,74.9-324.8,150.7c-118.6-105.2-232.4-206.2-351.7-312.3
		c61-43,122.8-86.7,188.4-132.9c40.7,51.3,76.1,97.1,113.1,142.2c19.2,23.6,46,48.8,76.1,21.3c12.9-11.8,10.6-48.8-0.5-66.8
		c-28-45.3-65-86.5-104.7-136.9c59.6-23.4,115.4-45.1,176.9-69.1c14.8,32.8,22.2,62.9,40.9,86c11.6,14.3,39.8,17.8,60.6,26.1
		c8.1-17.3,24-35.4,22.2-52c-2.3-24.7-17.3-48.6-30.7-82.8c74.2-9.2,142.9-17.8,220.8-27.5c0,29.8-6.5,53.6,1.6,72.6
		c8.8,20.3,31,36.3,47.4,54.1c14.3-17.1,34.7-32.4,41.6-51.8c7.2-19.7,1.6-43.2,1.6-74c73.5,8.6,139,16.2,215.2,25
		c-11.1,25.9-20.6,45.5-28.2,65.4c-10.4,28-18,61.5,23.4,68.4c18,3,47.2-20.1,62.7-37.5c16.2-18,21.7-43.5,35.1-72.1
		c59.6,22.2,116.5,43.2,180.3,67c-34.2,42.8-64.5,77.9-91.8,115.1c-20.1,27.5-65.7,57.8-17.6,90.2c49.2,33.1,68.2-13.9,90.9-40.2
		c33.1-38.4,64.3-78.1,101.5-123.7c65.4,45.8,127.4,89,189.8,132.9c-120.9,105-237.2,206.2-356.7,310
		c-86.5-73.5-196.8-123.5-322.8-148.2C2612.5,818.8,2594.9,797.6,2585.4,780.9z M1736.5,1162.2c43.5-60.8,117.7-69.1,172.2-20.6
		c46,40.9,63.3,95.9,65.2,139.2c0.7,64.5-10.4,107-34,145.7c-46.9,77-136.9,85.1-194.4,16.9
		C1679.6,1365.6,1681.2,1239.6,1736.5,1162.2z M3255.9,1443.3c-57.6,68.2-147.3,60.1-194.4-16.9c-23.6-38.6-34.7-81.2-34-145.7
		c2.1-43.2,19.2-98.3,65.2-139.2c54.6-48.6,128.8-40.2,172.2,20.6C3320.2,1239.6,3321.8,1365.6,3255.9,1443.3z M1503.4,1315.5
		c26.6-43.2,81.6-56.6,123.2-12c47.4,50.6,53.6,143.1,12.5,203.5c-30.1,44.2-84.8,48.8-120.9,10.2c-28.4-30.5-40.2-68.2-41.4-116.3
		C1476.9,1373.3,1486.3,1343.7,1503.4,1315.5z M1337.4,1490.3c24.5-52.2,80.9-57.1,113.1-10.6c26.6,38.4,28,99.9,3.2,139.9
		c-25,40.7-69.4,45.3-101.5,10.6c-21-22.9-27.5-51.6-29.6-90.9C1325.9,1527.7,1329.3,1507.8,1337.4,1490.3z M1230.4,1629
		c20.6-26.4,50.6-27.5,73.3-2.5c17.1,18.7,23.6,41.8,25.7,68.4c-4.4,16.9-6.9,34.4-13.9,49.9c-14.8,33.8-53.6,44.9-80,15
		C1205,1725.4,1201.7,1665.5,1230.4,1629z M1172.6,1894.6c-23.6-15.3-31.2-39.3-32.8-71.7c1.2-6.7,1.6-18.3,5.1-28.4
		c9.7-27.7,35.4-35.4,55.9-17.8c26.8,23.1,34.7,76.1,16,106.6C1206.3,1899.9,1188.3,1904.6,1172.6,1894.6z M2004,3527.3
		c-72.6,65.9-158.4,96.2-259.9,101c-81.6-3.5-157.2-34-208.8-115.8c-25.7-41.2-37.9-87.6-48.6-134.6
		c-27-118.4-35.4-239.8-43.9-360.7c-4.6-62.9-5.5-126.2-11.3-188.9c-7.4-79.8-39.5-151.4-69.6-223.6
		c-40.2-95.9-81.6-191.9-119.5-289c-24-61.3-37.9-126-34.4-193.1c6.7-132.5,52.9-248.3,136.2-346.6
		c71.7-84.6,158.4-148.2,257.8-190.5c68.7-28.9,139.4-44.6,213.9-31.9c107.7,18.3,185.7,114.2,188,230.3
		c1.6,83.2-21.5,160.2-48.6,236.5c-35.8,102-74.2,203-107.7,305.6c-31.4,95.7-40.9,195.4-32.8,296.4c4.6,60.3,19.7,119.1,50.2,170.2
		c39.5,65.9,83,129.2,126.2,192.6c50.9,74.4,94.6,152.1,111,244.1C2123.1,3348.9,2090.5,3449,2004,3527.3z M3759,2315.9
		c-37.9,97.1-79.1,193.1-119.5,289c-30.1,72.1-62.2,143.8-69.6,223.6c-5.8,62.7-6.7,126-11.3,188.9
		c-8.6,120.9-16.9,242.3-43.9,360.7c-10.6,46.9-22.9,93.4-48.6,134.6c-51.6,81.8-127.2,112.4-208.8,115.8
		c-101.5-4.9-187.3-35.1-259.9-101c-86.5-78.4-119.1-178.5-98-297.8c16.4-92,60.1-169.7,111-244.1c43.2-63.3,86.7-126.7,126.2-192.6
		c30.5-51.1,45.5-109.8,50.4-170.2c7.9-101-1.6-200.7-32.8-296.4c-33.8-102.7-71.9-203.7-108-305.6c-27-76.3-50.2-153.3-48.6-236.5
		c2.3-116.1,80.5-212,188-230.3c74.4-12.7,145.4,3,213.9,31.9c99.4,42.3,186.1,105.9,258,190.5c83,98.3,129.2,214.1,135.9,346.6
		C3796.9,2189.9,3783.1,2254.6,3759,2315.9z M3828.8,1894.6c-15.7,9.9-33.8,5.3-44.2-11.3c-18.7-30.5-10.9-83.5,16-106.6
		c20.6-17.6,46.2-9.9,55.9,17.8c3.7,10.2,3.9,21.7,5.3,28.4C3860.3,1855.3,3852.4,1879.4,3828.8,1894.6z"/>
	<path class="st1" d="M3354.9,637.4c-240-201.1-526-299.9-831.2-304c-352.8,4.2-637.9,105.2-878.6,305
		c-63.1,52.3-65.2,92.9-5.1,147.5c107.5,97.1,215.9,193.3,325.1,289c52,45.5,91.8,45.1,148.2,2.8c248.3-186.8,522.3-186.6,775.2,0
		c54.3,40.2,99.4,39.8,149.1-3.9c107.7-94.3,214.8-189.1,321.1-284.6C3421.7,732.8,3420.5,692.4,3354.9,637.4z M2952.8,1016.8
		c-86.5-73.5-196.8-123.5-322.8-148.2c-17.6-3.5-35.1-24.7-44.6-41.4c-28.7-51.8-53.6-105.2-84.6-167.6
		c-31,61.5-56.6,116.3-86.5,169.5c-9,16.4-27.3,37.2-44.9,40.2c-125.5,22-231.7,74.9-324.8,150.7
		c-118.6-105.2-232.4-206.2-351.7-312.3c61-43,122.8-86.7,188.4-132.9c40.7,51.3,76.1,97.1,113.1,142.2c19.2,23.6,46,48.8,76.1,21.3
		c12.9-11.8,10.6-48.8-0.5-66.8c-28-45.3-65-86.5-104.7-136.9c59.6-23.4,115.4-45.1,176.9-69.1c14.8,32.8,22.2,62.9,40.9,86
		c11.6,14.3,39.8,17.8,60.6,26.1c8.1-17.3,24-35.4,22.2-52c-2.3-24.7-17.3-48.6-30.7-82.8c74.2-9.2,142.9-17.8,220.8-27.5
		c0,29.8-6.5,53.6,1.6,72.6c8.8,20.3,31,36.3,47.4,54.1c14.3-17.1,34.7-32.4,41.6-51.8c7.2-19.7,1.6-43.2,1.6-74
		c73.5,8.6,139,16.2,215.2,25c-11.1,25.9-20.6,45.5-28.2,65.4c-10.4,28-18,61.5,23.4,68.4c18,3,47.2-20.1,62.7-37.5
		c16.2-18,21.7-43.5,35.1-72.1c59.6,22.2,116.5,43.2,180.3,67c-34.2,42.8-64.5,77.9-91.8,115.1c-20.1,27.5-65.7,57.8-17.6,90.2
		c49.2,33.1,68.2-13.9,90.9-40.2c33.1-38.4,64.3-78.1,101.5-123.7c65.4,45.8,127.4,89,189.8,132.9
		C3188.6,811.7,3072.4,912.9,2952.8,1016.8z"/>
</g>
</svg>
